<svg id="Group_4" data-name="Group 4" xmlns="http://www.w3.org/2000/svg" width="1154.5" height="834" viewBox="0 0 1154.5 834">
  <path id="Path_19" data-name="Path 19" d="M210.681,867h-.931c-48.2,0-93.939-2.4-128.8-6.748l-1.406-.185q-1.43-.187-2.826-.377c-5.472-.722-10.828-1.531-15.913-2.405-25.25-4.4-38.051-9.637-38.051-15.575,0-4.926,8.4-9.22,25.669-13.126,8.311-1.878,18.57-3.609,30.493-5.146,2.172-.29,4.408-.561,6.695-.82,34.152-4,78.242-6.2,124.143-6.2,9.073,0,18.255.088,27.289.26,76.921,1.474,159.711,9.935,159.711,25.03,0,9.016-29.934,14.834-55.046,18.128C306.748,864.422,260.216,866.966,210.681,867Zm-.931-48.58c-45.826,0-89.833,2.2-123.914,6.184q-3.415.39-6.664.817c-11.866,1.529-22.062,3.249-30.312,5.114-21.761,4.921-24.11,9.454-24.11,11.175,0,2.186,3.546,7.886,36.392,13.6,5.058.869,10.387,1.675,15.839,2.395.93.128,1.869.251,2.818.375l1.4.185C115.979,862.609,161.634,865,209.75,865h.93c110.106-.076,184.07-12.1,184.07-23.29,0-9.835-59.006-21.139-157.749-23.03C227.979,818.507,218.811,818.42,209.75,818.42Z" transform="translate(-22.75 -33)" fill="#3f3d56"/>
  <path id="Path_20" data-name="Path 20" d="M336.25,841.71c0,13.38-48.733,24.22-108.952,24.29h-.548c-29.394,0-56.086-2.57-75.755-6.74-.842-.19-1.672-.37-2.484-.56-3.344-.75-6.47-1.56-9.349-2.4-13.758-4.07-21.912-9.12-21.912-14.59,0-4.43,5.334-8.57,14.653-12.15a125.913,125.913,0,0,1,17.9-5.13c1.278-.29,2.59-.56,3.933-.82,19.374-3.85,44.966-6.19,73.018-6.19,5.451,0,10.815.09,16.054.26C295.664,819.4,336.25,829.5,336.25,841.71Z" transform="translate(-22.75 -33)" fill="#3f3d56"/>
  <path id="Path_21" data-name="Path 21" d="M171.679,621.6l4.673,36.453s1.869,12.151,3.739,18.694c0,0-1.869,34.584,13.086,58.886l9.347,17.759,1.869,26.171,23.367,2.8-4.673-39.257s-1.869-18.694,0-26.171-9.347-42.061-9.347-42.061,14.955-48.6,3.739-60.755S171.679,621.6,171.679,621.6Z" transform="translate(-22.75 -33)" fill="#a0616a"/>
  <path id="Path_22" data-name="Path 22" d="M212.8,772.089s-10.282,0-11.216,2.8-15.89,28.041-15.89,28.041-13.086,20.563,5.608,21.5,24.3-7.478,24.3-7.478,16.824-27.106,17.759-31.78-7.023-14.689-7.023-14.689S215.609,777.7,212.8,772.089Z" transform="translate(-22.75 -33)" fill="#2f2e41"/>
  <circle id="Ellipse_9" data-name="Ellipse 9" cx="31.78" cy="31.78" r="31.78" transform="translate(171.361 217.53)" fill="#a0616a"/>
  <path id="Path_23" data-name="Path 23" d="M200.187,292.124s0,34.584-12.151,37.388S204.86,364.1,220.75,360.357s22.433-28.975,22.433-28.975-14.02-17.759-8.412-27.106S200.187,292.124,200.187,292.124Z" transform="translate(-22.75 -33)" fill="#a0616a"/>
  <path id="Path_24" data-name="Path 24" d="M213.74,340.261a27.983,27.983,0,0,1-22.424-12.472s-13.095,2.191-14.964,3.125-34.584,11.216-42.061,32.714l29.91,38.322s-6.543,54.212,0,78.514a68.873,68.873,0,0,1-2.8,43.931s-2.8.935,1.869,2.8S275.43,507.571,277.3,501.963s-1.869-5.608.935-8.412,10.282-19.629,2.8-25.237-12.151-67.3-12.151-67.3l19.629-49.539s-35.874-28.67-48.782-25.084C239.733,326.393,237.107,340.261,213.74,340.261Z" transform="translate(-22.75 -33)" fill="#b1b493"/>
  <path id="Path_25" data-name="Path 25" d="M225.891,602.91s-1.869,41.127,1.869,57.016,3.739,22.433,3.739,22.433-5.608,27.106-2.8,52.343-3.271,65.915-3.271,65.915l22.9,6.991,14.02-71.037s11.216-43.931,4.673-64.494c0,0,3.739-62.625,6.543-69.167S225.891,602.91,225.891,602.91Z" transform="translate(-22.75 -33)" fill="#a0616a"/>
  <path id="Path_26" data-name="Path 26" d="M200.81,287.97c.421-2.981,1.312-6.233,3.854-7.846,2.639-1.675,6.045-.988,9.162-.76s6.937-.552,7.961-3.5c.639-1.841-.051-4.041.945-5.716,1.586-2.665,6.428-2.361,7.264-5.347.265-.946.007-2,.389-2.907.515-1.221,1.961-1.707,3.252-2.006a52.023,52.023,0,0,1,14.407-1.27,1.914,1.914,0,0,0,1.367-.271,1.672,1.672,0,0,0,.441-.768c1.095-3.273-.065-6.986-2.243-9.663a23.621,23.621,0,0,0-8.354-5.969,61.174,61.174,0,0,0-22.542-5.99c-5.962-.375-12.22.275-17.3,3.42a24.481,24.481,0,0,0-4.165,3.321,36.566,36.566,0,0,0-10.276,20.444,46.055,46.055,0,0,0,2.511,22.892c1.613,4.391,4.158,8.927,8.1,11.633,2.111,1.45,3.93,2.789,4.807.327C201.318,295.378,200.4,290.864,200.81,287.97Z" transform="translate(-22.75 -33)" fill="#2f2e41"/>
  <path id="Path_27" data-name="Path 27" d="M166.07,518.787s-14.02,18.694-11.216,31.78,13.086,34.584,13.086,34.584-5.608,42.061,3.739,42.061,49.539-1.869,50.473-6.543-2.8-51.408-2.8-51.408,4.673,41.127,7.478,41.127,51.408,4.673,53.277,1.869,5.608-74.776,5.608-74.776,5.1-33.943-11-38.47S166.07,518.787,166.07,518.787Z" transform="translate(-22.75 -33)" fill="#2f2e41"/>
  <path id="Path_28" data-name="Path 28" d="M240.846,800.13s-16.824-9.347-17.759-1.869-11.216,34.584-11.216,34.584-10.282,21.5,12.151,22.433,28.041-9.347,28.041-14.02-2.514-36.736-2.514-36.736Z" transform="translate(-22.75 -33)" fill="#2f2e41"/>
  <path id="Path_29" data-name="Path 29" d="M298.8,401.951l4.673,41.126s5.608,22.433,1.869,31.78S287.581,527.2,287.581,527.2s-3.739-23.367-13.086-26.171l5.608-53.278S266.721,414.5,269.673,410.1,298.8,401.951,298.8,401.951Z" transform="translate(-22.75 -33)" fill="#a0616a"/>
  <path id="Path_30" data-name="Path 30" d="M132.421,404.755l1.869,37.388s-6.543,32.714,6.543,67.3L142.7,524.4l12.151,23.367s2.8-22.433,8.412-22.433c0,0-5.608-14.955-3.739-23.367s-.935-53.277-.935-53.277l4.673-36.295Z" transform="translate(-22.75 -33)" fill="#a0616a"/>
  <path id="Path_31" data-name="Path 31" d="M278.234,350.542h10.282s24.3,56.082,14.955,57.016-39.257,8.412-40.192,4.673S278.234,350.542,278.234,350.542Z" transform="translate(-22.75 -33)" fill="#b1b493"/>
  <path id="Path_32" data-name="Path 32" d="M142.7,355.216l-8.412,8.412s-11.216,42.061-2.8,46.735,40.192,10.282,42.061,6.543S142.7,355.216,142.7,355.216Z" transform="translate(-22.75 -33)" fill="#b1b493"/>
  <path id="Path_33" data-name="Path 33" d="M119.487,820.466l-1.073-.4c-.236-.089-23.708-9.082-34.7-29.474S78.1,745.645,78.154,745.4l.253-1.118,1.073.4c.236.089,23.708,9.082,34.7,29.474s5.612,44.945,5.556,45.19ZM85.471,789.641c9.3,17.241,27.845,26.079,32.545,28.1.894-5.037,3.7-25.406-5.592-42.631s-27.843-26.074-32.545-28.1C78.984,752.05,76.183,772.417,85.471,789.641Z" transform="translate(-22.75 -33)" fill="#3f3d56"/>
  <path id="Path_34" data-name="Path 34" d="M92.113,783.437c19.761,11.889,27.371,35.5,27.371,35.5s-24.428,4.339-44.188-7.55-27.371-35.5-27.371-35.5S72.353,771.548,92.113,783.437Z" transform="translate(-22.75 -33)" fill="#707070"/>
  <path id="Path_35" data-name="Path 35" d="M844.25,65.328V784.694a32.278,32.278,0,0,1-11.31,24.582A31.845,31.845,0,0,1,812.076,817H521.424a32.035,32.035,0,0,1-17.981-5.493,32.408,32.408,0,0,1-14.193-26.813V65.328A32.249,32.249,0,0,1,521.424,33h43.5v5.6a26.557,26.557,0,0,0,26.487,26.624H739.233a26.193,26.193,0,0,0,15.706-5.194,24.65,24.65,0,0,0,2.607-2.2A26.6,26.6,0,0,0,765.719,38.6V33h46.356A32.242,32.242,0,0,1,844.25,65.328Z" transform="translate(-22.75 -33)" fill="#3f3d56"/>
  <ellipse id="Ellipse_10" data-name="Ellipse 10" cx="88.388" cy="17.677" rx="88.388" ry="17.677" transform="translate(559.356 609.794)" opacity="0.1"/>
  <path id="Path_36" data-name="Path 36" d="M1154.5,460.124H647.744V627.471l42.426-42.426H1154.5Z" fill="#707070"/>
  <rect id="Rectangle_48" data-name="Rectangle 48" width="348.837" height="28.284" transform="translate(726.704 488.408)" fill="#fff"/>
  <rect id="Rectangle_49" data-name="Rectangle 49" width="348.837" height="28.284" transform="translate(726.704 530.834)" fill="#fff"/>
  <path id="Path_37" data-name="Path 37" d="M798.419,217.47a15.98,15.98,0,0,0-21.93-17.925,29.35,29.35,0,0,0-33.472-9.313,41.44,41.44,0,0,0-72.485,27.238Z" transform="translate(-22.75 -33)" fill="#efefef"/>
  <path id="Path_38" data-name="Path 38" d="M617.432,274.24a41.442,41.442,0,0,0-72.488-27.454,29.361,29.361,0,0,0-37.06,15.166,15.964,15.964,0,0,0-18.341,12.5H617.43C617.43,274.384,617.432,274.312,617.432,274.24Z" transform="translate(-22.75 -33)" fill="#efefef"/>
  <path id="Path_39" data-name="Path 39" d="M777.6,320.468a34.727,34.727,0,0,0-60.742-23.005A24.6,24.6,0,0,0,685.8,310.171a13.377,13.377,0,0,0-15.369,10.478H777.595C777.595,320.588,777.6,320.528,777.6,320.468Z" transform="translate(-22.75 -33)" fill="#efefef"/>
  <path id="Path_40" data-name="Path 40" d="M699.889,269.392l-3.018-3.234-4.624,4.313,4.313,4.624,3.328-3.1,1.3-1.209Zm-3.307,5.017-3.648-3.916,3.911-3.648,3.044,3.259.609.652-.609.57Z" transform="translate(-22.75 -33)" fill="#efefef"/>
  <path id="Path_41" data-name="Path 41" d="M739.179,240.256l-4.624,4.313,4.313,4.624,4.624-4.313Zm-3.937,4.334,3.911-3.648,3.652,3.911-3.916,3.652Z" transform="translate(-22.75 -33)" fill="#efefef"/>
  <path id="Path_42" data-name="Path 42" d="M564.284,342.964l-4.624,4.313,4.313,4.624,4.624-4.313Zm-3.937,4.339,3.911-3.652,3.652,3.916L564,351.214Z" transform="translate(-22.75 -33)" fill="#efefef"/>
  <path id="Path_43" data-name="Path 43" d="M745.651,362.2l-2.638-2.828-4.624,4.313,4.313,4.624,2.949-2.75,1.675-1.563Zm-2.923,5.422-3.652-3.911,3.911-3.652,2.664,2.854.989,1.062-.989.924Z" transform="translate(-22.75 -33)" fill="#efefef"/>
  <path id="Path_44" data-name="Path 44" d="M535.839,316.25l-.047-.052-4.624,4.313,4.313,4.624.358-.332,4.265-3.98Zm-.332,8.2-3.652-3.911,3.911-3.652.073.078,3.579,3.838-3.579,3.337Z" transform="translate(-22.75 -33)" fill="#efefef"/>
  <path id="Path_45" data-name="Path 45" d="M590.286,297.686v6.32h6.325v-6.32Zm5.837,5.837h-5.349v-5.353h5.349Z" transform="translate(-22.75 -33)" fill="#efefef"/>
  <path id="Path_46" data-name="Path 46" d="M704.69,347.333v6.32h6.325v-6.32Zm5.837,5.837h-5.349v-5.353h5.349Z" transform="translate(-22.75 -33)" fill="#efefef"/>
  <path id="Path_47" data-name="Path 47" d="M515.98,193.829V376.175A164.028,164.028,0,0,1,503.029,365.7V204.441a166.528,166.528,0,0,1,12.951-10.612Z" transform="translate(-22.75 -33)" opacity="0.2"/>
  <path id="Path_48" data-name="Path 48" d="M548.79,174.217v221.2q-6.683-3.128-12.951-6.605V180.964Q542.108,177.422,548.79,174.217Z" transform="translate(-22.75 -33)" opacity="0.2"/>
  <path id="Path_49" data-name="Path 49" d="M581.6,161.4V407.872q-6.605-1.975-12.951-4.261V165.8Q574.989,163.446,581.6,161.4Z" transform="translate(-22.75 -33)" opacity="0.2"/>
  <path id="Path_50" data-name="Path 50" d="M614.41,153.421V415.483q-6.566-1.1-12.951-2.491V156.055Q607.838,154.6,614.41,153.421Z" transform="translate(-22.75 -33)" opacity="0.2"/>
  <path id="Path_51" data-name="Path 51" d="M647.22,149.454V419.087q-6.54-.35-12.951-.976V150.572Q640.68,149.879,647.22,149.454Z" transform="translate(-22.75 -33)" opacity="0.2"/>
  <path id="Path_52" data-name="Path 52" d="M680.03,149.1V419.066q-6.417.35-12.951.427V148.819Q673.607,148.826,680.03,149.1Z" transform="translate(-22.75 -33)" opacity="0.2"/>
  <path id="Path_53" data-name="Path 53" d="M712.841,152.364v263.08q-6.4,1.075-12.951,1.874V150.628Q706.436,151.353,712.841,152.364Z" transform="translate(-22.75 -33)" opacity="0.2"/>
  <path id="Path_54" data-name="Path 54" d="M745.651,159.582V407.863q-6.366,1.9-12.951,3.5V156.223Q739.285,157.751,745.651,159.582Z" transform="translate(-22.75 -33)" opacity="0.2"/>
  <path id="Path_55" data-name="Path 55" d="M778.461,171.531V395.546q-6.307,2.914-12.951,5.5V166.17Q772.147,168.689,778.461,171.531Z" transform="translate(-22.75 -33)" opacity="0.2"/>
  <path id="Path_56" data-name="Path 56" d="M811.271,190.009V376.7q-6.191,4.4-12.951,8.418V181.741Q805.067,185.672,811.271,190.009Z" transform="translate(-22.75 -33)" opacity="0.2"/>
  <path id="Path_57" data-name="Path 57" d="M844.081,220.522v125.3a140,140,0,0,1-12.951,14.428v-154a137.324,137.324,0,0,1,12.951,14.281Z" transform="translate(-22.75 -33)" opacity="0.2"/>
</svg>
